<svg xmlns="http://www.w3.org/2000/svg" xmlns:xlink="http://www.w3.org/1999/xlink" width="500" zoomAndPan="magnify" viewBox="0 0 375 374.999991" height="500" preserveAspectRatio="xMidYMid meet" version="1.0"><defs><clipPath id="ab7d1a371b"><path d="M 23.59375 37.5 L 351.34375 37.5 L 351.34375 324.75 L 23.59375 324.75 Z M 23.59375 37.5 " clip-rule="nonzero"/></clipPath></defs><g clip-path="url(#ab7d1a371b)"><path fill="#4a5ba3" d="M 208.039062 37.351562 C 164.085938 37.351562 123.636719 56.820312 96.164062 90.890625 C 88.347656 85.027344 78.910156 81.820312 69.027344 81.820312 C 44.027344 81.820312 23.710938 102.175781 23.710938 127.136719 C 23.710938 150.664062 41.742188 170.058594 64.714844 172.269531 C 64.527344 175.183594 64.417969 178.09375 64.417969 180.933594 C 64.417969 260.101562 128.835938 324.515625 208 324.515625 C 287.238281 324.515625 351.65625 260.101562 351.65625 180.933594 C 351.65625 101.769531 287.238281 37.351562 208.039062 37.351562 Z M 32.929688 127.175781 C 32.929688 107.261719 49.117188 91.074219 69.027344 91.074219 C 78.207031 91.074219 86.949219 94.542969 93.695312 100.847656 C 100.957031 107.632812 105.125 117.21875 105.125 127.210938 C 105.125 129.644531 104.867188 132.078125 104.386719 134.363281 C 101.070312 150.625 86.6875 163.050781 69.542969 163.308594 L 69.027344 163.308594 C 49.152344 163.273438 32.929688 147.085938 32.929688 127.175781 Z M 208.039062 315.300781 C 133.921875 315.300781 73.671875 255.011719 73.671875 180.933594 C 73.671875 178.09375 73.785156 175.183594 73.96875 172.234375 C 74.042969 172.234375 74.078125 172.195312 74.152344 172.195312 C 74.707031 172.121094 75.222656 172.011719 75.738281 171.9375 C 76.660156 171.789062 77.582031 171.679688 78.464844 171.496094 C 79.054688 171.382812 79.609375 171.199219 80.199219 171.054688 C 81.011719 170.832031 81.859375 170.648438 82.671875 170.390625 C 83.261719 170.203125 83.8125 169.984375 84.402344 169.761719 C 85.175781 169.46875 85.953125 169.210938 86.6875 168.878906 C 87.277344 168.621094 87.832031 168.359375 88.386719 168.101562 C 89.121094 167.769531 89.824219 167.402344 90.523438 167.035156 C 91.078125 166.738281 91.59375 166.40625 92.144531 166.113281 C 92.808594 165.707031 93.511719 165.300781 94.136719 164.859375 C 94.652344 164.527344 95.171875 164.15625 95.6875 163.789062 C 96.3125 163.347656 96.941406 162.867188 97.53125 162.386719 L 98.96875 161.171875 C 99.558594 160.65625 100.109375 160.136719 100.664062 159.585938 L 101.992188 158.257812 C 102.542969 157.703125 103.0625 157.113281 103.539062 156.523438 C 103.945312 156.046875 104.351562 155.566406 104.71875 155.085938 C 105.199219 154.460938 105.679688 153.832031 106.121094 153.207031 C 106.488281 152.691406 106.859375 152.175781 107.191406 151.65625 C 107.632812 150.996094 108 150.332031 108.40625 149.628906 C 108.703125 149.078125 109.035156 148.5625 109.328125 148.007812 C 109.699219 147.308594 110.03125 146.570312 110.363281 145.832031 C 110.621094 145.277344 110.878906 144.726562 111.097656 144.136719 C 111.394531 143.363281 111.6875 142.585938 111.945312 141.8125 C 112.132812 141.257812 112.351562 140.667969 112.535156 140.117188 C 112.796875 139.304688 112.980469 138.457031 113.199219 137.609375 C 113.347656 137.054688 113.496094 136.503906 113.605469 135.949219 C 113.789062 134.992188 113.902344 134.03125 114.046875 133.074219 L 114.269531 131.636719 C 114.417969 130.160156 114.492188 128.6875 114.492188 127.210938 C 114.492188 125.738281 114.417969 124.261719 114.269531 122.785156 C 114.234375 122.308594 114.121094 121.828125 114.085938 121.347656 C 113.976562 120.351562 113.828125 119.394531 113.644531 118.398438 C 113.53125 117.84375 113.386719 117.292969 113.273438 116.738281 C 113.054688 115.855469 112.832031 115.007812 112.574219 114.121094 C 112.390625 113.53125 112.207031 112.976562 112.019531 112.425781 C 111.726562 111.613281 111.429688 110.804688 111.097656 109.992188 C 110.878906 109.4375 110.621094 108.886719 110.363281 108.332031 C 109.992188 107.558594 109.625 106.785156 109.21875 106.007812 C 108.921875 105.492188 108.664062 104.941406 108.371094 104.425781 C 107.929688 103.648438 107.449219 102.914062 106.933594 102.136719 C 106.601562 101.660156 106.304688 101.179688 105.972656 100.738281 C 105.382812 99.925781 104.757812 99.152344 104.128906 98.375 C 103.835938 98.007812 103.578125 97.640625 103.246094 97.308594 C 103.207031 97.234375 103.132812 97.195312 103.097656 97.125 C 128.796875 64.96875 166.851562 46.609375 208.183594 46.609375 C 282.300781 46.609375 342.546875 106.894531 342.546875 180.972656 C 342.546875 255.050781 282.152344 315.300781 208.039062 315.300781 Z M 208.039062 315.300781 " fill-opacity="1" fill-rule="nonzero"/></g><path fill="#4a5ba3" d="M 231.378906 122.566406 C 193.695312 122.566406 163.015625 153.242188 163.015625 190.925781 C 163.015625 228.609375 193.695312 259.289062 231.378906 259.289062 C 269.0625 259.289062 299.738281 228.609375 299.738281 190.925781 C 299.738281 153.242188 269.0625 122.566406 231.378906 122.566406 Z M 231.378906 250.035156 C 198.78125 250.035156 172.234375 223.523438 172.234375 190.890625 C 172.234375 158.292969 198.746094 131.746094 231.378906 131.746094 C 264.011719 131.746094 290.519531 158.257812 290.519531 190.890625 C 290.519531 223.523438 264.011719 250.035156 231.378906 250.035156 Z M 231.378906 250.035156 " fill-opacity="1" fill-rule="nonzero"/></svg>